<svg width="40" height="40" viewBox="0 0 40 40" fill="none" xmlns="http://www.w3.org/2000/svg">
<rect x="0.5" y="0.5" width="39" height="39" rx="9.5" fill="white" stroke="black"/>
<path d="M28.6619 26.771C28.6619 26.771 27.5032 27.909 27.2193 28.2427C26.7567 28.7363 26.2117 28.9693 25.4973 28.9693C25.4286 28.9693 25.3553 28.9693 25.2866 28.9648C23.9265 28.8779 22.6625 28.3478 21.7145 27.8953C19.1224 26.643 16.8462 24.8652 14.9548 22.612C13.3931 20.7336 12.349 18.9969 11.6574 17.1322C11.2315 15.9942 11.0758 15.1075 11.1445 14.2711C11.1903 13.7364 11.3964 13.2931 11.7765 12.9137L13.3382 11.3553C13.5626 11.145 13.8007 11.0308 14.0343 11.0308C14.3228 11.0308 14.5564 11.2044 14.7029 11.3507C14.7075 11.3553 14.7121 11.3598 14.7167 11.3644C14.996 11.6249 15.2617 11.8946 15.541 12.1825C15.683 12.3287 15.8295 12.475 15.9761 12.6258L17.2264 13.8735C17.7118 14.358 17.7118 14.8059 17.2264 15.2903C17.0935 15.4229 16.9653 15.5554 16.8325 15.6834C16.4478 16.0764 16.75 15.7748 16.3516 16.1313C16.3424 16.1405 16.3333 16.145 16.3287 16.1542C15.9348 16.5472 16.0081 16.9311 16.0905 17.1916C16.0951 17.2053 16.0997 17.2191 16.1043 17.2328C16.4294 18.0189 16.8874 18.7593 17.5835 19.6413L17.5881 19.6459C18.8521 21.1998 20.1848 22.411 21.6549 23.3387C21.8426 23.4576 22.035 23.5536 22.2182 23.645C22.383 23.7272 22.5387 23.8049 22.6716 23.8872C22.6899 23.8963 22.7082 23.91 22.7265 23.9192C22.8822 23.9969 23.0288 24.0334 23.1799 24.0334C23.56 24.0334 23.7982 23.7958 23.876 23.7181L24.7737 22.8222C24.9294 22.6668 25.1767 22.4795 25.4652 22.4795C25.7492 22.4795 25.9827 22.6577 26.1247 22.8131C26.1293 22.8177 26.1293 22.8177 26.1339 22.8222L28.6573 25.3405C29.129 25.8067 28.6619 26.771 28.6619 26.771Z" stroke="black" stroke-width="1.5" stroke-linecap="round" stroke-linejoin="round"/>
</svg>
