<svg width="32" height="32" viewBox="0 0 32 32" fill="none" xmlns="http://www.w3.org/2000/svg">
<path d="M25.9556 13.1556V6.75558C25.9556 5.18463 24.6821 3.91113 23.1111 3.91113H6.04446C4.47351 3.91113 3.20001 5.18464 3.20001 6.75558V17.886C3.20001 19.457 4.47351 20.7305 6.04446 20.7305H8.27054V26.6667L14.2068 20.7305H14.5778M21.9208 24.3788L25.6309 28.0889V24.3788H25.9556C27.5265 24.3788 28.8 23.1053 28.8 21.5343V16.7111C28.8 15.1402 27.5265 13.8667 25.9556 13.8667H17.4222C15.8513 13.8667 14.5778 15.1402 14.5778 16.7111V21.5343C14.5778 23.1053 15.8513 24.3788 17.4222 24.3788H21.9208Z" stroke="white" stroke-width="2" stroke-linecap="round" stroke-linejoin="round"/>
</svg>
