<svg width="32" height="32" viewBox="0 0 32 32" fill="none" xmlns="http://www.w3.org/2000/svg">
<path d="M24.9506 7.71798C23.2327 6.91715 21.3727 6.33589 19.4352 6.00006C19.4182 5.99952 19.4013 6.0027 19.3857 6.0094C19.3701 6.01609 19.3561 6.02613 19.3448 6.03881C19.1123 6.46506 18.841 7.02048 18.6602 7.44673C16.6052 7.13673 14.5152 7.13673 12.4602 7.44673C12.2793 7.00756 12.0081 6.46506 11.7627 6.03881C11.7498 6.01298 11.711 6.00006 11.6723 6.00006C9.73475 6.33589 7.88765 6.91715 6.15681 7.71798C6.1439 7.71798 6.13098 7.7309 6.11806 7.74382C2.60471 13.0009 1.63596 18.1159 2.11388 23.1793C2.11388 23.2051 2.1268 23.231 2.15263 23.2439C4.47764 24.9489 6.71223 25.9822 8.92099 26.6668C8.95974 26.6797 8.99849 26.6668 9.01141 26.641C9.52808 25.9306 9.99308 25.1814 10.3935 24.3935C10.4193 24.3418 10.3935 24.2901 10.3418 24.2772C9.60558 23.9931 8.90808 23.6572 8.22349 23.2697C8.17182 23.2439 8.17182 23.1664 8.21057 23.1276C8.35266 23.0243 8.49474 22.9081 8.63683 22.8047C8.66266 22.7789 8.70141 22.7789 8.72724 22.7918C13.1706 24.8197 17.9627 24.8197 22.3544 22.7918C22.3802 22.7789 22.419 22.7789 22.4448 22.8047C22.5869 22.921 22.729 23.0243 22.8711 23.1406C22.9227 23.1793 22.9227 23.2568 22.8581 23.2826C22.1865 23.6831 21.476 24.006 20.7398 24.2901C20.6881 24.3031 20.6752 24.3676 20.6881 24.4064C21.1015 25.1943 21.5665 25.9435 22.0702 26.6539C22.109 26.6668 22.1477 26.6797 22.1865 26.6668C24.4081 25.9822 26.6427 24.9489 28.9677 23.2439C28.9936 23.231 29.0065 23.2051 29.0065 23.1793C29.5748 17.328 28.0636 12.2518 25.0023 7.74382C24.9894 7.7309 24.9765 7.71798 24.9506 7.71798ZM11.0652 20.0922C9.73475 20.0922 8.62391 18.8651 8.62391 17.3539C8.62391 15.8426 9.70891 14.6155 11.0652 14.6155C12.4343 14.6155 13.5193 15.8555 13.5064 17.3539C13.5064 18.8651 12.4214 20.0922 11.0652 20.0922ZM20.0681 20.0922C18.7377 20.0922 17.6269 18.8651 17.6269 17.3539C17.6269 15.8426 18.7119 14.6155 20.0681 14.6155C21.4373 14.6155 22.5223 15.8555 22.5094 17.3539C22.5094 18.8651 21.4373 20.0922 20.0681 20.0922Z" fill="black"/>
</svg>
