<svg width="24" height="24" viewBox="0 0 24 24" fill="none" xmlns="http://www.w3.org/2000/svg">
<path d="M12 22.0499C11.5957 22.0499 11.1515 21.8658 10.6821 21.412C10.209 20.9547 9.74878 20.2567 9.34599 19.3361C8.97981 18.4991 8.67331 17.5059 8.44802 16.3984C9.60831 16.2229 10.8762 16.125 12.2116 16.125C13.3916 16.125 14.518 16.2014 15.5637 16.34C15.3373 17.4711 15.0265 18.4844 14.6539 19.3361C14.2511 20.2567 13.7909 20.9547 13.3178 21.412C12.8484 21.8658 12.4042 22.0499 12 22.0499ZM12.2116 14.625C10.811 14.625 9.45986 14.7274 8.20524 14.9181C8.08832 13.9962 8.02495 13.0171 8.02495 12C8.02495 10.9828 8.08832 10.0037 8.20524 9.0818C9.45986 9.27249 10.811 9.37495 12.2116 9.37495C13.4579 9.37495 14.6659 9.29379 15.8021 9.14127C15.9143 10.0457 15.9749 11.0046 15.9749 12C15.9749 12.9953 15.9143 13.9542 15.8021 14.8586C14.6659 14.7061 13.4579 14.625 12.2116 14.625ZM6.72827 8.80693C6.5955 9.82302 6.52495 10.8949 6.52495 12C6.52495 13.105 6.5955 14.1769 6.72827 15.193C5.28443 15.5142 4.01709 15.9613 3.01504 16.5075C2.3336 15.1518 1.94995 13.6207 1.94995 12C1.94995 10.3792 2.3336 8.84809 3.01504 7.49242C4.01709 8.03858 5.28443 8.4857 6.72827 8.80693ZM8.44802 7.60152C8.67331 6.49396 8.97981 5.5008 9.34599 4.66381C9.74878 3.74315 10.209 3.0452 10.6821 2.58788C11.1515 2.13405 11.5957 1.94995 12 1.94995C12.4042 1.94995 12.8484 2.13405 13.3178 2.58788C13.7909 3.0452 14.2511 3.74315 14.6539 4.66381C15.0265 5.51547 15.3373 6.52884 15.5637 7.6599C14.518 7.7985 13.3916 7.87495 12.2116 7.87495C10.8762 7.87495 9.60831 7.777 8.44802 7.60152ZM17.475 12C17.475 10.9265 17.4084 9.88433 17.2829 8.8942C18.7357 8.60163 20.0268 8.18446 21.0708 7.66759C21.6985 8.97942 22.0499 10.4486 22.0499 12C22.0499 13.5513 21.6985 15.0205 21.0708 16.3323C20.0268 15.8154 18.7357 15.3983 17.2829 15.1057C17.4084 14.1156 17.475 13.0734 17.475 12ZM20.3221 6.36404C19.4407 6.78915 18.3263 7.14989 17.0438 7.41217C16.7976 6.16668 16.4529 5.03352 16.0281 4.06258C15.7692 3.47077 15.4757 2.92814 15.1487 2.45307C17.2758 3.15424 19.0889 4.54648 20.3221 6.36404ZM17.0438 16.5877C18.3263 16.85 19.4407 17.2107 20.3221 17.6359C19.0889 19.4534 17.2758 20.8457 15.1487 21.5468C15.4757 21.0718 15.7692 20.5291 16.0281 19.9373C16.4529 18.9664 16.7976 17.8332 17.0438 16.5877ZM7.97175 19.9373C8.23067 20.5291 8.52421 21.0718 8.85125 21.5468C6.78657 20.8663 5.01777 19.5346 3.78788 17.7949C4.62524 17.3471 5.70993 16.9623 6.97363 16.6753C7.21856 17.8863 7.55694 18.9892 7.97175 19.9373ZM8.85125 2.45307C8.52421 2.92814 8.23067 3.47077 7.97175 4.06258C7.55694 5.01073 7.21856 6.11357 6.97363 7.32465C5.70993 7.03764 4.62524 6.65281 3.78788 6.20505C5.01777 4.46532 6.78657 3.13365 8.85125 2.45307Z" stroke="black" stroke-width="1.5"/>
</svg>
