<svg width="22" height="22" viewBox="0 0 22 22" fill="none" xmlns="http://www.w3.org/2000/svg">
<path d="M11 21.0499C10.5957 21.0499 10.1515 20.8658 9.68206 20.412C9.20903 19.9547 8.74878 19.2567 8.34599 18.3361C7.97981 17.4991 7.67331 16.5059 7.44802 15.3984C8.60831 15.2229 9.87616 15.125 11.2116 15.125C12.3916 15.125 13.518 15.2014 14.5637 15.34C14.3373 16.4711 14.0265 17.4844 13.6539 18.3361C13.2511 19.2567 12.7909 19.9547 12.3178 20.412C11.8484 20.8658 11.4042 21.0499 11 21.0499ZM11.2116 13.625C9.81099 13.625 8.45986 13.7274 7.20524 13.9181C7.08832 12.9962 7.02495 12.0171 7.02495 11C7.02495 9.98275 7.08832 9.00368 7.20524 8.0818C8.45986 8.27249 9.81099 8.37495 11.2116 8.37495C12.4579 8.37495 13.6659 8.29379 14.8021 8.14127C14.9143 9.04575 14.9749 10.0046 14.9749 11C14.9749 11.9953 14.9143 12.9542 14.8021 13.8586C13.6659 13.7061 12.4579 13.625 11.2116 13.625ZM5.72827 7.80693C5.5955 8.82302 5.52495 9.89494 5.52495 11C5.52495 12.105 5.5955 13.1769 5.72827 14.193C4.28443 14.5142 3.01709 14.9613 2.01504 15.5075C1.3336 14.1518 0.949951 12.6207 0.949951 11C0.949951 9.37922 1.3336 7.84809 2.01504 6.49242C3.01709 7.03858 4.28443 7.4857 5.72827 7.80693ZM7.44802 6.60152C7.67331 5.49396 7.97981 4.5008 8.34599 3.66381C8.74878 2.74315 9.20903 2.0452 9.68206 1.58788C10.1515 1.13405 10.5957 0.949951 11 0.949951C11.4042 0.949951 11.8484 1.13405 12.3178 1.58788C12.7909 2.0452 13.2511 2.74315 13.6539 3.66381C14.0265 4.51547 14.3373 5.52884 14.5637 6.6599C13.518 6.7985 12.3916 6.87495 11.2116 6.87495C9.87616 6.87495 8.60831 6.777 7.44802 6.60152ZM16.475 11C16.475 9.92653 16.4084 8.88433 16.2829 7.8942C17.7357 7.60163 19.0268 7.18446 20.0708 6.66759C20.6985 7.97942 21.0499 9.44864 21.0499 11C21.0499 12.5513 20.6985 14.0205 20.0708 15.3323C19.0268 14.8154 17.7357 14.3983 16.2829 14.1057C16.4084 13.1156 16.475 12.0734 16.475 11ZM19.3221 5.36404C18.4407 5.78915 17.3263 6.14989 16.0438 6.41217C15.7976 5.16668 15.4529 4.03352 15.0281 3.06258C14.7692 2.47077 14.4757 1.92814 14.1487 1.45307C16.2758 2.15424 18.0889 3.54648 19.3221 5.36404ZM16.0438 15.5877C17.3263 15.85 18.4407 16.2107 19.3221 16.6359C18.0889 18.4534 16.2758 19.8457 14.1487 20.5468C14.4757 20.0718 14.7692 19.5291 15.0281 18.9373C15.4529 17.9664 15.7976 16.8332 16.0438 15.5877ZM6.97175 18.9373C7.23067 19.5291 7.52421 20.0718 7.85125 20.5468C5.78657 19.8663 4.01777 18.5346 2.78788 16.7949C3.62524 16.3471 4.70993 15.9623 5.97363 15.6753C6.21856 16.8863 6.55694 17.9892 6.97175 18.9373ZM7.85125 1.45307C7.52421 1.92814 7.23067 2.47077 6.97175 3.06258C6.55694 4.01073 6.21856 5.11357 5.97363 6.32465C4.70993 6.03764 3.62524 5.65281 2.78788 5.20505C4.01777 3.46532 5.78657 2.13365 7.85125 1.45307Z" stroke="black" stroke-width="1.5"/>
</svg>
