<svg width="30" height="30" viewBox="0 0 30 30" fill="none" xmlns="http://www.w3.org/2000/svg">
<path d="M5.65717 21.6884C5.36428 21.9813 5.36428 22.4562 5.65717 22.7491C5.95006 23.042 6.42494 23.042 6.71783 22.7491L5.65717 21.6884ZM10.9375 17.4688L11.4678 16.9384C11.1749 16.6455 10.7001 16.6455 10.4072 16.9384L10.9375 17.4688ZM13.3125 19.8438L12.7822 20.3741C12.9228 20.5147 13.1136 20.5938 13.3125 20.5938C13.5114 20.5938 13.7022 20.5147 13.8428 20.3741L13.3125 19.8438ZM18.6562 14.5L19.1866 13.9697C19.0459 13.829 18.8552 13.75 18.6562 13.75C18.4573 13.75 18.2666 13.829 18.1259 13.9697L18.6562 14.5ZM22.8759 19.7803C23.1688 20.0732 23.6437 20.0732 23.9366 19.7803C24.2295 19.4874 24.2295 19.0126 23.9366 18.7197L22.8759 19.7803ZM6.71783 22.7491L11.4678 17.9991L10.4072 16.9384L5.65717 21.6884L6.71783 22.7491ZM10.4072 17.9991L12.7822 20.3741L13.8428 19.3134L11.4678 16.9384L10.4072 17.9991ZM13.8428 20.3741L19.1866 15.0303L18.1259 13.9697L12.7822 19.3134L13.8428 20.3741ZM18.1259 15.0303L22.8759 19.7803L23.9366 18.7197L19.1866 13.9697L18.1259 15.0303ZM8.5625 5.75H20.4375V4.25H8.5625V5.75ZM23.25 8.5625V20.4375H24.75V8.5625H23.25ZM20.4375 23.25H8.5625V24.75H20.4375V23.25ZM5.75 20.4375V8.5625H4.25V20.4375H5.75ZM8.5625 23.25C7.0092 23.25 5.75 21.9908 5.75 20.4375H4.25C4.25 22.8192 6.18077 24.75 8.5625 24.75V23.25ZM23.25 20.4375C23.25 21.9908 21.9908 23.25 20.4375 23.25V24.75C22.8192 24.75 24.75 22.8192 24.75 20.4375H23.25ZM20.4375 5.75C21.9908 5.75 23.25 7.0092 23.25 8.5625H24.75C24.75 6.18077 22.8192 4.25 20.4375 4.25V5.75ZM8.5625 4.25C6.18077 4.25 4.25 6.18077 4.25 8.5625H5.75C5.75 7.0092 7.0092 5.75 8.5625 5.75V4.25ZM11.375 10.3438C11.375 10.9133 10.9133 11.375 10.3438 11.375V12.875C11.7417 12.875 12.875 11.7417 12.875 10.3438H11.375ZM10.3438 11.375C9.77421 11.375 9.3125 10.9133 9.3125 10.3438H7.8125C7.8125 11.7417 8.94578 12.875 10.3438 12.875V11.375ZM9.3125 10.3438C9.3125 9.77421 9.77421 9.3125 10.3438 9.3125V7.8125C8.94578 7.8125 7.8125 8.94578 7.8125 10.3438H9.3125ZM10.3438 9.3125C10.9133 9.3125 11.375 9.77421 11.375 10.3438H12.875C12.875 8.94578 11.7417 7.8125 10.3438 7.8125V9.3125Z" fill="black"/>
</svg>
