<svg width="98" height="102" viewBox="0 0 98 102" fill="none" xmlns="http://www.w3.org/2000/svg">
<path d="M0 0H98V102H0V0Z" fill="white"/>
<path d="M65.625 41.6667H62.9375V36.3333C62.9375 28.9733 56.9175 23 49.5 23C42.0825 23 36.0625 28.9733 36.0625 36.3333V41.6667H33.375C30.4188 41.6667 28 44.0667 28 47V73.6667C28 76.6 30.4188 79 33.375 79H65.625C68.5813 79 71 76.6 71 73.6667V47C71 44.0667 68.5813 41.6667 65.625 41.6667ZM49.5 60.3333C46.5438 60.3333 44.125 63.2667 44.125 60.3333C44.125 57.4 45.8294 60.3875 48.7856 60.3875C51.7419 60.3875 54.875 59.3537 54.875 60.3333C54.875 63.2667 52.4562 60.3333 49.5 60.3333ZM41.4375 41.6667V36.3333C41.4375 31.9067 45.0387 28.3333 49.5 28.3333C53.9613 28.3333 57.5625 31.9067 57.5625 36.3333V41.6667H41.4375Z" fill="black"/>
<path d="M44.7246 53L35 67.9326L45.4773 62.1604L53.3827 67.2424L63.8605 53L53.3827 59.2743L44.7246 53Z" fill="white"/>
</svg>
