<svg width="30" height="30" viewBox="0 0 30 30" fill="none" xmlns="http://www.w3.org/2000/svg">
<path d="M14.5011 1L16.4669 6.31259L21.7795 8.27843L16.4669 10.2443L14.5011 15.5569L12.5353 10.2443L7.22266 8.27843L12.5353 6.31259L14.5011 1Z" stroke="black" stroke-width="1.5" stroke-linejoin="round"/>
<path d="M4.84691 27.0371V19.8945H6.2142L10.4283 25.0372H9.76509V19.8945H11.3977V27.0371H10.0406L5.81626 21.8944H6.4795V27.0371H4.84691ZM14.1845 23.1087H17.6129V24.4352H14.1845V23.1087ZM14.3069 27.0371H12.6539V19.8945H18.0517V21.221H14.3069V27.0371ZM20.7537 27.0371V21.2414H18.468V19.8945H24.6923V21.2414H22.4067V27.0371H20.7537Z" fill="black"/>
</svg>
