<svg width="98" height="26" viewBox="0 0 98 26" fill="none" xmlns="http://www.w3.org/2000/svg">
<circle cx="13" cy="13" r="12.5" stroke="black"/>
<path d="M17.1059 10.7327C16.9496 10.6494 16.7751 10.6058 16.598 10.6058C16.4209 10.6058 16.2464 10.6494 16.0901 10.7327L13.8002 12.0869L12.2006 12.9759L9.91076 14.3308C9.75443 14.4141 9.58002 14.4577 9.40288 14.4577C9.22574 14.4577 9.05132 14.4141 8.89499 14.3308L7.07512 13.2717C6.92534 13.1854 6.80005 13.0622 6.71112 12.9139C6.62218 12.7657 6.57253 12.5971 6.56686 12.4243V10.3103C6.56363 10.1356 6.60955 9.96357 6.69939 9.81374C6.78922 9.66391 6.91935 9.54234 7.07493 9.46289L8.89499 8.44731C9.05121 8.36365 9.22567 8.31987 9.40288 8.31987C9.58008 8.31987 9.75455 8.36365 9.91076 8.44731L11.7306 9.46308C11.8804 9.54948 12.0056 9.67264 12.0945 9.82091C12.1834 9.96919 12.233 10.1377 12.2387 10.3105V11.6637L13.8002 10.7329V9.42127C13.8045 9.24746 13.7599 9.07595 13.6716 8.92617C13.5834 8.77639 13.4549 8.65434 13.3008 8.57386L9.95238 6.62744C9.79617 6.54378 9.6217 6.5 9.4445 6.5C9.26729 6.5 9.09283 6.54378 8.93661 6.62744L5.55109 8.57386C5.38208 8.63951 5.238 8.75669 5.13928 8.90878C5.04055 9.06086 4.99219 9.24016 5.00103 9.42127V13.3567C4.99855 13.5306 5.04486 13.7018 5.13469 13.8508C5.22452 13.9997 5.35429 14.1206 5.50929 14.1996L8.89499 16.1507C9.05132 16.234 9.22574 16.2776 9.40288 16.2776C9.58002 16.2776 9.75443 16.234 9.91076 16.1507L12.2006 14.8383L13.7665 13.9075L16.0485 12.5994C16.2048 12.5161 16.3792 12.4725 16.5564 12.4725C16.7335 12.4725 16.9079 12.5161 17.0643 12.5994L18.8841 13.6152C19.0338 13.7016 19.159 13.8248 19.2478 13.9731C19.3366 14.1214 19.3861 14.2899 19.3916 14.4626V16.5365C19.3949 16.711 19.349 16.8829 19.2593 17.0326C19.1696 17.1823 19.0396 17.3038 18.8841 17.3832L17.0643 18.4406C16.908 18.5242 16.7336 18.568 16.5564 18.568C16.3792 18.568 16.2047 18.5242 16.0485 18.4406L14.2286 17.4248C14.0789 17.3386 13.9536 17.2156 13.8647 17.0675C13.7757 16.9194 13.7261 16.751 13.7204 16.5783V15.2191L12.2006 16.1074V17.4608C12.1973 17.6354 12.2431 17.8075 12.3328 17.9573C12.4226 18.1071 12.5526 18.2287 12.7082 18.3082L16.0939 20.2544C16.2502 20.3381 16.4248 20.3819 16.6021 20.3819C16.7794 20.3819 16.954 20.3381 17.1104 20.2544L20.4959 18.3078C20.6447 18.2211 20.769 18.098 20.8571 17.9501C20.9453 17.8021 20.9944 17.6342 20.9998 17.4621V13.525C21.0031 13.3504 20.9571 13.1784 20.8673 13.0287C20.7774 12.879 20.6472 12.7576 20.4916 12.6784L17.1059 10.7327Z" fill="black"/>
<path d="M37.032 19H34.104V7.16H40.632C42.92 7.16 44.344 8.504 44.344 10.936C44.344 13.272 42.984 14.776 40.632 14.776H37.032V19ZM37.032 9.672V12.248H39.8C40.856 12.248 41.416 11.832 41.416 10.984C41.416 10.104 40.824 9.672 39.8 9.672H37.032ZM49.498 19.24C46.922 19.24 45.194 17.512 45.194 14.872C45.194 12.232 46.922 10.52 49.498 10.52C52.074 10.52 53.786 12.216 53.786 14.872C53.786 17.512 52.042 19.24 49.498 19.24ZM49.498 17C50.378 17 50.97 16.248 50.986 14.952V14.792C50.97 13.512 50.394 12.76 49.498 12.76C48.602 12.76 48.026 13.512 47.994 14.792V14.952C48.026 16.248 48.602 17 49.498 17ZM55.0177 19V7.16H57.8177V19H55.0177ZM63.6284 16.312L65.8364 10.76H68.5884L64.1564 20.952C63.5484 22.328 62.5724 22.984 61.0684 22.984H58.9564V20.728H60.5244C61.1804 20.728 61.6124 20.456 61.8844 19.832L62.1564 19.224C62.2204 19.048 62.2204 18.936 62.1564 18.776L58.7004 10.76H61.4364L63.6284 16.312ZM77.3862 10.472C77.0822 10.968 76.4422 11.368 75.1622 11.112L75.0982 11.24C75.8182 11.48 76.6982 12.36 76.6982 13.912C76.6982 15.944 75.1942 17.288 72.9222 17.304C72.0422 17.304 71.5942 17.432 71.5942 17.832C71.5942 18.152 71.8662 18.328 72.4422 18.328H74.4582C76.3142 18.328 77.3542 19.256 77.3542 20.904C77.3542 22.504 76.3782 23.384 74.5702 23.384H70.8262C69.2902 23.384 68.4102 22.664 68.4102 21.464C68.4102 20.408 69.1942 19.704 70.7462 19.704V19.528C69.9622 19.512 69.3702 19.096 69.3702 18.392C69.3702 17.624 70.0582 17.144 71.0342 17.144H71.2742V17.048C69.9142 16.552 69.0662 15.416 69.0662 13.912C69.0662 11.88 70.6022 10.52 72.8902 10.52H74.0422C74.8262 10.52 75.3862 10.152 75.3862 9.56C75.3862 9.256 75.3062 9 75.1462 8.792H77.4022C77.7062 9.48 77.6742 10.072 77.3862 10.472ZM72.8902 15.48C73.6902 15.48 74.1702 14.888 74.1702 13.912C74.1702 12.936 73.6902 12.36 72.8902 12.36C72.0742 12.36 71.5942 12.936 71.5942 13.912C71.5942 14.888 72.0742 15.48 72.8902 15.48ZM74.0742 20.312H71.7542C71.2742 20.312 70.9222 20.552 70.9222 20.936C70.9222 21.288 71.2102 21.544 71.6582 21.544H74.0742C74.5702 21.544 74.8422 21.336 74.8422 20.92C74.8422 20.52 74.5542 20.312 74.0742 20.312ZM82.3092 19.24C79.7332 19.24 78.0052 17.512 78.0052 14.872C78.0052 12.232 79.7332 10.52 82.3092 10.52C84.8852 10.52 86.5972 12.216 86.5972 14.872C86.5972 17.512 84.8532 19.24 82.3092 19.24ZM82.3092 17C83.1892 17 83.7812 16.248 83.7972 14.952V14.792C83.7812 13.512 83.2052 12.76 82.3092 12.76C81.4132 12.76 80.8372 13.512 80.8052 14.792V14.952C80.8372 16.248 81.4132 17 82.3092 17ZM94.021 10.52C95.893 10.52 96.853 11.704 96.853 14.024V19H94.053V14.344C94.053 13 93.429 12.632 92.693 12.632C91.765 12.632 91.157 13.352 90.789 14.088V19H87.989V10.76H90.789V12.824H90.885C91.589 11.256 92.581 10.52 94.021 10.52Z" fill="black"/>
</svg>
