<svg width="32" height="32" viewBox="0 0 32 32" fill="none" xmlns="http://www.w3.org/2000/svg">
<path d="M11.676 5.67403L13.4702 3.09557C13.6572 2.82692 13.9638 2.66675 14.2911 2.66675H17.0454C17.3715 2.66675 17.6771 2.82573 17.8642 3.09274L19.6408 5.62718M11.676 5.67403C11.2135 6.33383 10.4448 6.65713 9.62887 6.59949M11.676 5.67403C11.2113 6.33225 10.4448 6.65981 9.62887 6.59949M9.62887 6.59949L6.45975 6.40053C6.1389 6.38039 5.82794 6.51572 5.62402 6.76425L3.87944 8.89048C3.66324 9.15397 3.59613 9.50944 3.7014 9.83362L4.63217 12.7001M4.63217 12.7001C4.75073 13.0846 4.76591 13.4964 4.68105 13.8854M4.63217 12.7001C4.75242 13.0839 4.76703 13.4949 4.68049 13.8894M4.68105 13.8854C4.59508 14.2698 4.41076 14.6327 4.1371 14.9266M4.68105 13.8854L4.68049 13.8894M4.1371 14.9266L2.03371 17.1889C1.80531 17.4345 1.71528 17.7783 1.79397 18.1044L2.41456 20.6761C2.49298 21.0011 2.72863 21.2654 3.04253 21.3804L5.93248 22.4396C6.31235 22.5866 6.64051 22.8256 6.88889 23.1266M4.1371 14.9266C4.41245 14.6351 4.59508 14.2734 4.68049 13.8894M6.88889 23.1266C7.13558 23.4284 7.3036 23.7927 7.36878 24.1872M6.88889 23.1266C7.13783 23.4284 7.30641 23.7918 7.36878 24.1872M6.88889 23.1266L6.88496 23.1222C6.86866 23.1025 6.85124 23.0819 6.83438 23.0627M7.36878 24.1872L7.86072 27.209C7.91399 27.5362 8.12594 27.8157 8.42661 27.9553L10.9119 29.1092C11.203 29.2444 11.5412 29.2316 11.8213 29.0749L14.5216 27.5642M14.5216 27.5642C14.8751 27.3656 15.2696 27.2661 15.664 27.2656M14.5216 27.5642C14.6615 27.4846 14.8082 27.421 14.9588 27.3733C15.1875 27.3009 15.4258 27.2651 15.664 27.2656M15.664 27.2656C15.8691 27.266 16.0742 27.2932 16.2743 27.3467C16.4603 27.3966 16.6412 27.4692 16.8126 27.5642M15.664 27.2656C16.0602 27.2651 16.4569 27.3646 16.8126 27.5642M16.8126 27.5642L19.6332 29.0911C19.9144 29.2433 20.2516 29.2519 20.5402 29.114L23.0132 27.9329C23.3128 27.7898 23.5219 27.5073 23.5711 27.179L24.0127 24.2374M24.0127 24.2374C24.0751 23.8407 24.2408 23.4736 24.4869 23.1692M24.0127 24.2374C24.0728 23.8398 24.2397 23.4733 24.4869 23.1692M24.4869 23.1692C24.7314 22.8678 25.0556 22.6277 25.4332 22.4792M24.4869 23.1692C24.7308 22.8666 25.0539 22.6258 25.4332 22.4792M25.4332 22.4792L28.348 21.3369C28.656 21.2162 28.8843 20.951 28.958 20.6285L29.5506 18.034C29.6241 17.7124 29.5342 17.3753 29.3103 17.1329L27.1977 14.8454M27.1977 14.8454C26.919 14.5504 26.7246 14.1981 26.6302 13.8237M27.1977 14.8454C27.0668 14.7076 26.9544 14.557 26.8628 14.3974C26.7583 14.2161 26.6802 14.0231 26.6302 13.8237M26.6302 13.8237C26.5374 13.452 26.5431 13.0581 26.6605 12.6768L27.5763 9.74135C27.6767 9.41955 27.6082 9.06883 27.3941 8.80844L25.6869 6.73198C25.4806 6.48109 25.1653 6.34601 24.8414 6.36974L21.7048 6.59949M21.7048 6.59949C21.2991 6.62814 20.9001 6.55085 20.545 6.3846M21.7048 6.59949C21.2985 6.62979 20.9001 6.55188 20.545 6.3846M20.545 6.3846C20.1876 6.21621 19.874 5.95728 19.6408 5.62718M20.545 6.3846C20.187 6.21683 19.8729 5.95859 19.6408 5.62718M4.68049 13.8894L4.68162 13.8836M20.2674 16.6416C20.2674 19.1282 18.2062 21.1439 15.664 21.1439C13.1218 21.1439 11.0607 19.1282 11.0607 16.6416C11.0607 14.155 13.1218 12.1393 15.664 12.1393C18.2062 12.1393 20.2674 14.155 20.2674 16.6416Z" stroke="white" stroke-width="2"/>
</svg>
