<svg width="32" height="32" viewBox="0 0 32 32" fill="none" xmlns="http://www.w3.org/2000/svg">
<path d="M28.3727 8.37707C27.4567 8.77446 26.488 9.03716 25.4967 9.157C26.5425 8.53223 27.3262 7.54935 27.7024 6.39069C26.7197 6.97572 25.6439 7.3879 24.5218 7.60933C23.7718 6.79598 22.773 6.25457 21.6822 6.07001C20.5913 5.88546 19.47 6.06819 18.4942 6.58956C17.5184 7.11093 16.7432 7.94145 16.2902 8.95085C15.8373 9.96025 15.7322 11.0914 15.9914 12.167C14.0043 12.0665 12.0606 11.5491 10.2865 10.6484C8.51244 9.74775 6.94769 8.48394 5.6939 6.93908C5.25414 7.70703 5.02307 8.57671 5.02365 9.46165C5.02209 10.2835 5.22377 11.0929 5.61074 11.818C5.9977 12.543 6.55794 13.1611 7.24157 13.6172C6.44699 13.5956 5.66939 13.3824 4.97491 12.9957V13.0566C4.98086 14.2081 5.38436 15.3222 6.11715 16.2104C6.84994 17.0986 7.86704 17.7065 8.9964 17.9312C8.56166 18.0635 8.1103 18.1332 7.6559 18.1383C7.34136 18.1347 7.0276 18.1061 6.71756 18.053C7.03917 19.0436 7.66154 19.9092 8.49807 20.5295C9.33461 21.1498 10.3437 21.4939 11.3849 21.514C9.62668 22.8974 7.45591 23.6525 5.21863 23.6588C4.81129 23.6601 4.40426 23.6357 4 23.5856C6.28424 25.0605 8.94621 25.8434 11.6652 25.8401C13.5415 25.8596 15.4029 25.505 17.1407 24.7971C18.8784 24.0891 20.4577 23.042 21.7862 21.7169C23.1148 20.3917 24.1659 18.8152 24.8783 17.0792C25.5907 15.3433 25.9501 13.4828 25.9354 11.6065V10.9606C26.8917 10.2474 27.7164 9.37321 28.3727 8.37707Z" fill="black"/>
</svg>
