<svg width="40" height="40" viewBox="0 0 40 40" fill="none" xmlns="http://www.w3.org/2000/svg">
<rect x="0.5" y="0.5" width="39" height="39" rx="9.5" fill="white" stroke="black"/>
<g clip-path="url(#clip0_1_4386)">
<path d="M25.7603 18.7872L31.25 15.2595V25.7415L25.7611 22.2134C25.731 22.1843 25.7111 22.1385 25.7111 22.103V18.8971C25.7111 18.8606 25.7317 18.8149 25.7603 18.7872ZM31.5461 25.9271C31.5462 25.9272 31.5448 25.9269 31.5416 25.9259C31.5444 25.9265 31.546 25.927 31.5461 25.9271ZM9.75 25.133V15.8381C9.75674 15.8345 9.76387 15.8308 9.77142 15.8269C9.97624 15.722 10.3451 15.5944 10.9255 15.4743C12.0752 15.2364 13.9033 15.0577 16.5372 15.0577C19.1688 15.0577 20.9956 15.2463 22.144 15.492C22.7235 15.6159 23.0933 15.7469 23.2995 15.8538C23.3083 15.8584 23.3166 15.8628 23.3244 15.8671V25.162C23.3177 25.1656 23.3105 25.1693 23.303 25.1732C23.0982 25.2781 22.7293 25.4057 22.1489 25.5258C20.9992 25.7637 19.1711 25.9424 16.5372 25.9424C13.9056 25.9424 12.0788 25.7538 10.9304 25.5081C10.3509 25.3842 9.98106 25.2532 9.77495 25.1463C9.76609 25.1417 9.75778 25.1372 9.75 25.133Z" stroke="black" stroke-width="1.5"/>
</g>
<defs>
<clipPath id="clip0_1_4386">
<rect width="23" height="23" fill="white" transform="translate(9 9)"/>
</clipPath>
</defs>
</svg>
