<svg width="32" height="32" viewBox="0 0 32 32" fill="none" xmlns="http://www.w3.org/2000/svg">
<path d="M13.3334 20.0001L20.2534 16.0001L13.3334 12.0001V20.0001ZM28.7467 9.56008C28.92 10.1867 29.04 11.0267 29.12 12.0934C29.2134 13.1601 29.2534 14.0801 29.2534 14.8801L29.3334 16.0001C29.3334 18.9201 29.12 21.0667 28.7467 22.4401C28.4134 23.6401 27.64 24.4134 26.44 24.7467C25.8134 24.9201 24.6667 25.0401 22.9067 25.1201C21.1734 25.2134 19.5867 25.2534 18.12 25.2534L16 25.3334C10.4134 25.3334 6.93335 25.1201 5.56002 24.7467C4.36002 24.4134 3.58669 23.6401 3.25335 22.4401C3.08002 21.8134 2.96002 20.9734 2.88002 19.9067C2.78669 18.8401 2.74669 17.9201 2.74669 17.1201L2.66669 16.0001C2.66669 13.0801 2.88002 10.9334 3.25335 9.56008C3.58669 8.36008 4.36002 7.58675 5.56002 7.25341C6.18669 7.08008 7.33335 6.96008 9.09335 6.88008C10.8267 6.78675 12.4134 6.74675 13.88 6.74675L16 6.66675C21.5867 6.66675 25.0667 6.88008 26.44 7.25341C27.64 7.58675 28.4134 8.36008 28.7467 9.56008Z" fill="black"/>
</svg>
